<svg width="64" height="64" viewBox="0 0 64 64" fill="none" xmlns="http://www.w3.org/2000/svg">
<path d="M57.3333 48.0001L39.6189 32.0001M24.381 32.0001L6.66676 48.0001M5.33334 18.6667L27.1064 33.9078C28.8696 35.1422 29.7512 35.7593 30.7101 35.9982C31.5571 36.2094 32.4429 36.2094 33.2899 35.9982C34.2488 35.7593 35.1304 35.1422 36.8936 33.9078L58.6667 18.6667M18.1333 53.3334H45.8667C50.3472 53.3334 52.5872 53.3334 54.2987 52.4614C55.804 51.6945 57.0277 50.4707 57.7947 48.9654C58.6667 47.2539 58.6667 45.0139 58.6667 40.5334V23.4667C58.6667 18.9863 58.6667 16.7461 57.7947 15.0348C57.0277 13.5295 55.804 12.3057 54.2987 11.5387C52.5872 10.6667 50.3472 10.6667 45.8667 10.6667H18.1333C13.6529 10.6667 11.4127 10.6667 9.70142 11.5387C8.19612 12.3057 6.97228 13.5295 6.20529 15.0348C5.33334 16.7461 5.33334 18.9863 5.33334 23.4667V40.5334C5.33334 45.0139 5.33334 47.2539 6.20529 48.9654C6.97228 50.4707 8.19612 51.6945 9.70142 52.4614C11.4127 53.3334 13.6529 53.3334 18.1333 53.3334Z" stroke="#E9E8FF" stroke-width="4" stroke-linecap="round" stroke-linejoin="round"/>
</svg>
