<svg width="25" height="24" viewBox="0 0 25 24" fill="none" xmlns="http://www.w3.org/2000/svg">
    <path d="m18.964 4.614-.297-.259h-.393c-.62.047-1.238.118-1.857.224a13.836 13.836 0 0 0-3.393-2.81l-.512-.305L12 1.77a13.577 13.577 0 0 0-3.393 2.809 16.02 16.02 0 0 0-1.857-.212l-.405-.024-.297.259A10.191 10.191 0 0 0 2.5 12.346c0 5.582 4.488 10.118 10 10.118s10-4.536 10-10.118c0-2.985-1.286-5.793-3.536-7.732zm-8.178.564A11.222 11.222 0 0 1 12.5 3.803c.607.4 1.19.87 1.714 1.375a13.11 13.11 0 0 0-1.714.764 13.857 13.857 0 0 0-1.714-.764zm.643 15.23c-3.56-.482-6.381-3.361-6.846-6.992 3.56.482 6.381 3.36 6.846 6.992zm-4.762-8.532a9.24 9.24 0 0 0-2.107-.458 8.14 8.14 0 0 1 2.5-5.03c1.202.094 2.369.376 3.476.835a14.145 14.145 0 0 0-3.87 4.653zm6.904 8.532c.465-3.631 3.286-6.51 6.846-6.992-.465 3.63-3.286 6.51-6.846 6.992zm-1.071-3.35a10.148 10.148 0 0 0-4-4.347c1.869-3.596 5.464-6.005 9.452-6.323a8.14 8.14 0 0 1 2.5 5.018c-3.44.364-6.428 2.492-7.94 5.64l-.012.013z" fill="#DE1B72"/>
</svg>
